<svg width="30" height="30" viewBox="0 0 30 30" fill="none" xmlns="http://www.w3.org/2000/svg">
<path fill-rule="evenodd" clip-rule="evenodd" d="M5.71922 24.2808C3.25781 21.8194 1.875 18.481 1.875 15C1.875 11.519 3.25781 8.18064 5.71922 5.71922C8.18064 3.25781 11.519 1.875 15 1.875C18.481 1.875 21.8194 3.25781 24.2808 5.71922C26.7422 8.18064 28.125 11.519 28.125 15C28.125 18.481 26.7422 21.8194 24.2808 24.2808C21.8194 26.7422 18.481 28.125 15 28.125C11.519 28.125 8.18064 26.7422 5.71922 24.2808ZM4.3934 25.6066C1.58035 22.7936 0 18.9782 0 15C0 11.0218 1.58035 7.20644 4.3934 4.3934C7.20644 1.58035 11.0218 0 15 0C18.9782 0 22.7936 1.58035 25.6066 4.3934C28.4196 7.20644 30 11.0218 30 15C30 18.9782 28.4196 22.7936 25.6066 25.6066C22.7936 28.4196 18.9782 30 15 30C11.0218 30 7.20644 28.4196 4.3934 25.6066ZM17.8679 9.01541C17.8206 8.90151 17.7513 8.79806 17.664 8.71097C17.5769 8.62367 17.4735 8.5544 17.3596 8.50714C17.2457 8.45987 17.1236 8.43555 17.0003 8.43555C16.877 8.43555 16.7549 8.45987 16.641 8.50714C16.5271 8.5544 16.4236 8.62367 16.3365 8.71097L10.7115 14.336C10.6242 14.4231 10.555 14.5265 10.5077 14.6404C10.4604 14.7543 10.4361 14.8764 10.4361 14.9997C10.4361 15.123 10.4604 15.2451 10.5077 15.359C10.555 15.4729 10.6242 15.5764 10.7115 15.6635L16.3365 21.2885C16.5126 21.4645 16.7513 21.5634 17.0003 21.5634C17.2492 21.5634 17.488 21.4645 17.664 21.2885C17.8401 21.1124 17.939 20.8737 17.939 20.6247C17.939 20.3758 17.8401 20.137 17.664 19.961L12.7009 14.9997L17.664 10.0385C17.7513 9.95139 17.8206 9.84793 17.8679 9.73404C17.9151 9.62014 17.9395 9.49804 17.9395 9.37472C17.9395 9.25141 17.9151 9.12931 17.8679 9.01541Z" fill="#468ADA"/>
</svg>
