<svg width="30" height="30" viewBox="0 0 30 30" fill="none" xmlns="http://www.w3.org/2000/svg">
<path fill-rule="evenodd" clip-rule="evenodd" d="M24.2808 5.71922C26.7422 8.18064 28.125 11.519 28.125 15C28.125 18.481 26.7422 21.8194 24.2808 24.2808C21.8194 26.7422 18.481 28.125 15 28.125C11.519 28.125 8.18064 26.7422 5.71922 24.2808C3.25781 21.8194 1.875 18.481 1.875 15C1.875 11.519 3.25781 8.18064 5.71922 5.71922C8.18064 3.25781 11.519 1.875 15 1.875C18.481 1.875 21.8194 3.25781 24.2808 5.71922ZM25.6066 4.3934C28.4196 7.20644 30 11.0218 30 15C30 18.9782 28.4196 22.7936 25.6066 25.6066C22.7936 28.4196 18.9782 30 15 30C11.0218 30 7.20644 28.4196 4.3934 25.6066C1.58035 22.7936 0 18.9782 0 15C0 11.0218 1.58035 7.20644 4.3934 4.3934C7.20644 1.58035 11.0218 0 15 0C18.9782 0 22.7936 1.58035 25.6066 4.3934ZM12.1321 20.9843C12.1794 21.0982 12.2487 21.2017 12.336 21.2888C12.4231 21.3761 12.5265 21.4454 12.6404 21.4926C12.7543 21.5399 12.8764 21.5642 12.9997 21.5642C13.123 21.5642 13.2451 21.5399 13.359 21.4926C13.4729 21.4454 13.5764 21.3761 13.6635 21.2888L19.2885 15.6638C19.3758 15.5767 19.445 15.4732 19.4923 15.3593C19.5396 15.2455 19.5639 15.1233 19.5639 15C19.5639 14.8767 19.5396 14.7546 19.4923 14.6407C19.445 14.5268 19.3758 14.4234 19.2885 14.3363L13.6635 8.71128C13.4874 8.53525 13.2487 8.43635 12.9997 8.43635C12.7508 8.43635 12.512 8.53525 12.336 8.71128C12.1599 8.88732 12.061 9.12608 12.061 9.37503C12.061 9.62399 12.1599 9.86275 12.336 10.0388L17.2991 15L12.336 19.9613C12.2487 20.0484 12.1794 20.1518 12.1321 20.2657C12.0849 20.3796 12.0605 20.5017 12.0605 20.625C12.0605 20.7483 12.0849 20.8705 12.1321 20.9843Z" fill="#468ADA"/>
</svg>
