<svg width="30" height="30" viewBox="0 0 30 30" fill="none" xmlns="http://www.w3.org/2000/svg">
<path fill-rule="evenodd" clip-rule="evenodd" d="M24.2808 5.71922C26.7422 8.18064 28.125 11.519 28.125 15C28.125 18.481 26.7422 21.8194 24.2808 24.2808C21.8194 26.7422 18.481 28.125 15 28.125C11.519 28.125 8.18064 26.7422 5.71922 24.2808C3.25781 21.8194 1.875 18.481 1.875 15C1.875 11.519 3.25781 8.18064 5.71922 5.71922C8.18064 3.25781 11.519 1.875 15 1.875C18.481 1.875 21.8194 3.25781 24.2808 5.71922ZM25.6066 4.3934C28.4196 7.20644 30 11.0218 30 15C30 18.9782 28.4196 22.7936 25.6066 25.6066C22.7936 28.4196 18.9782 30 15 30C11.0218 30 7.20644 28.4196 4.3934 25.6066C1.58035 22.7936 0 18.9782 0 15C0 11.0218 1.58035 7.20644 4.3934 4.3934C7.20644 1.58035 11.0218 0 15 0C18.9782 0 22.7936 1.58035 25.6066 4.3934ZM12.1323 20.9846C12.1795 21.0985 12.2488 21.2019 12.3361 21.289C12.4232 21.3763 12.5267 21.4456 12.6405 21.4929C12.7544 21.5401 12.8765 21.5645 12.9999 21.5645C13.1232 21.5645 13.2453 21.5401 13.3592 21.4929C13.4731 21.4456 13.5765 21.3763 13.6636 21.289L19.2886 15.664C19.3759 15.5769 19.4452 15.4735 19.4924 15.3596C19.5397 15.2457 19.564 15.1236 19.564 15.0003C19.564 14.877 19.5397 14.7549 19.4924 14.641C19.4452 14.5271 19.3759 14.4236 19.2886 14.3365L13.6636 8.71153C13.4876 8.53549 13.2488 8.43659 12.9999 8.43659C12.7509 8.43659 12.5121 8.53549 12.3361 8.71153C12.1601 8.88757 12.0612 9.12632 12.0612 9.37528C12.0612 9.62423 12.1601 9.86299 12.3361 10.039L17.2992 15.0003L12.3361 19.9615C12.2488 20.0486 12.1795 20.1521 12.1323 20.266C12.085 20.3799 12.0607 20.502 12.0607 20.6253C12.0607 20.7486 12.085 20.8707 12.1323 20.9846Z" fill="#468ADA"/>
</svg>
