<svg width="35" height="35" viewBox="0 0 35 35" fill="none" xmlns="http://www.w3.org/2000/svg">
<path fill-rule="evenodd" clip-rule="evenodd" d="M28.3276 28.3276C25.4559 31.1992 21.5611 32.8125 17.5 32.8125C13.4389 32.8125 9.54408 31.1992 6.67243 28.3276C3.80078 25.4559 2.1875 21.5611 2.1875 17.5C2.1875 13.4389 3.80078 9.54408 6.67243 6.67243C9.54408 3.80078 13.4389 2.1875 17.5 2.1875C21.5611 2.1875 25.4559 3.80078 28.3276 6.67243C31.1992 9.54408 32.8125 13.4389 32.8125 17.5C32.8125 21.5611 31.1992 25.4559 28.3276 28.3276ZM29.8744 29.8744C26.5925 33.1563 22.1413 35 17.5 35C12.8587 35 8.40752 33.1563 5.12563 29.8744C1.84374 26.5925 0 22.1413 0 17.5C0 12.8587 1.84374 8.40752 5.12563 5.12563C8.40752 1.84374 12.8587 0 17.5 0C22.1413 0 26.5925 1.84374 29.8744 5.12563C33.1563 8.40752 35 12.8587 35 17.5C35 22.1413 33.1563 26.5925 29.8744 29.8744ZM10.5178 14.1543C10.3849 14.2095 10.2642 14.2903 10.1626 14.3921C10.0608 14.4937 9.97997 14.6144 9.92483 14.7473C9.86969 14.8802 9.84131 15.0226 9.84131 15.1665C9.84131 15.3104 9.86969 15.4528 9.92483 15.5857C9.97997 15.7186 10.0608 15.8393 10.1626 15.9409L16.7251 22.5034C16.8267 22.6052 16.9474 22.6861 17.0803 22.7412C17.2132 22.7963 17.3556 22.8247 17.4995 22.8247C17.6434 22.8247 17.7858 22.7963 17.9187 22.7412C18.0516 22.6861 18.1723 22.6052 18.2739 22.5034L24.8364 15.9409C25.0418 15.7355 25.1571 15.457 25.1571 15.1665C25.1571 14.8761 25.0418 14.5975 24.8364 14.3921C24.631 14.1868 24.3525 14.0714 24.062 14.0714C23.7716 14.0714 23.493 14.1868 23.2876 14.3921L17.4995 20.1824L11.7114 14.3921C11.6098 14.2903 11.4891 14.2095 11.3562 14.1543C11.2233 14.0992 11.0809 14.0708 10.937 14.0708C10.7931 14.0708 10.6507 14.0992 10.5178 14.1543Z" fill="white"/>
</svg>
