<svg width="30" height="30" viewBox="0 0 30 30" fill="none" xmlns="http://www.w3.org/2000/svg">
<path fill-rule="evenodd" clip-rule="evenodd" d="M24.2808 24.2808C21.8194 26.7422 18.481 28.125 15 28.125C11.519 28.125 8.18064 26.7422 5.71922 24.2808C3.25781 21.8194 1.875 18.481 1.875 15C1.875 11.519 3.25781 8.18064 5.71922 5.71922C8.18064 3.25781 11.519 1.875 15 1.875C18.481 1.875 21.8194 3.25781 24.2808 5.71922C26.7422 8.18064 28.125 11.519 28.125 15C28.125 18.481 26.7422 21.8194 24.2808 24.2808ZM25.6066 25.6066C22.7936 28.4196 18.9782 30 15 30C11.0218 30 7.20644 28.4196 4.3934 25.6066C1.58035 22.7936 0 18.9782 0 15C0 11.0218 1.58035 7.20644 4.3934 4.3934C7.20644 1.58035 11.0218 0 15 0C18.9782 0 22.7936 1.58035 25.6066 4.3934C28.4196 7.20644 30 11.0218 30 15C30 18.9782 28.4196 22.7936 25.6066 25.6066ZM9.01541 12.1323C8.90151 12.1795 8.79806 12.2488 8.71097 12.3361C8.62367 12.4232 8.5544 12.5267 8.50714 12.6405C8.45987 12.7544 8.43555 12.8765 8.43555 12.9999C8.43555 13.1232 8.45987 13.2453 8.50714 13.3592C8.5544 13.4731 8.62367 13.5765 8.71097 13.6636L14.336 19.2886C14.4231 19.3759 14.5265 19.4452 14.6404 19.4924C14.7543 19.5397 14.8764 19.564 14.9997 19.564C15.123 19.564 15.2451 19.5397 15.359 19.4924C15.4729 19.4452 15.5764 19.3759 15.6635 19.2886L21.2885 13.6636C21.4645 13.4876 21.5634 13.2488 21.5634 12.9999C21.5634 12.7509 21.4645 12.5121 21.2885 12.3361C21.1124 12.1601 20.8737 12.0612 20.6247 12.0612C20.3758 12.0612 20.137 12.1601 19.961 12.3361L14.9997 17.2992L10.0385 12.3361C9.95139 12.2488 9.84793 12.1795 9.73404 12.1323C9.62014 12.085 9.49804 12.0607 9.37472 12.0607C9.25141 12.0607 9.12931 12.085 9.01541 12.1323Z" fill="white"/>
</svg>
