<svg width="96" height="96" viewBox="0 0 96 96" fill="none" xmlns="http://www.w3.org/2000/svg">
<circle cx="48" cy="48" r="48" fill="white"/>
<circle cx="48.0001" cy="48" r="36.9" stroke="#468ADA" stroke-width="3"/>
<path d="M77.9081 37.8966L48.9177 18.5599C48.5977 18.3466 48.1988 18.3466 47.8794 18.5599L18.8917 37.8966C18.4126 38.2159 18.257 38.9077 18.5434 39.4418C18.8297 39.9759 19.4503 40.1502 19.9293 39.8302L48.3982 20.8398L76.8698 39.8302C77.0322 39.9391 77.2114 39.9902 77.3886 39.9902C77.7323 39.9902 78.0671 39.7949 78.2564 39.4418C78.5428 38.9077 78.3872 38.2159 77.9081 37.8966Z" fill="#468ADA"/>
<path d="M70.1738 56.0487H60.5052L54.258 43.6089C54.0794 43.2528 53.7419 43.0327 53.376 43.0327H37.5322C37.2722 43.0327 37.0215 43.1446 36.8335 43.346L24.6342 56.3612C24.4348 56.5738 24.3223 56.8683 24.3223 57.1755V71.7285C24.3223 72.3505 24.7744 72.8553 25.3329 72.8553H32.2431C32.7249 75.9976 35.1801 78.3999 38.1346 78.3999C41.0891 78.3999 43.5436 75.9976 44.0254 72.8553H55.303C55.7847 75.9976 58.24 78.3999 61.1938 78.3999C64.1476 78.3999 66.6028 75.9976 67.0846 72.8553H72.8467C73.4045 72.8553 73.8573 72.3505 73.8573 71.7285V60.1788C73.8587 57.8238 72.2753 56.0487 70.1738 56.0487ZM38.1346 76.1463C35.9496 76.1463 34.1728 74.1647 34.1728 71.73C34.1728 69.2939 35.9502 67.3122 38.1346 67.3122C40.319 67.3122 42.0964 69.2939 42.0964 71.73C42.0964 74.1647 40.319 76.1463 38.1346 76.1463ZM61.1945 76.1463C59.0114 76.1463 57.2347 74.1669 57.2327 71.7338C57.2327 71.7323 57.2333 71.73 57.2333 71.7285C57.2333 71.727 57.2327 71.7255 57.2327 71.724C57.2354 69.2901 59.0114 67.3122 61.1945 67.3122C63.3788 67.3122 65.1562 69.2939 65.1562 71.73C65.1562 74.1647 63.3788 76.1463 61.1945 76.1463ZM71.8374 70.6017H67.0852C66.6021 67.4602 64.1483 65.0586 61.1945 65.0586C58.2406 65.0586 55.7868 67.4602 55.3037 70.6017H44.0254C43.5423 67.4602 41.0884 65.0586 38.1346 65.0586C35.1808 65.0586 32.7269 67.4602 32.2438 70.6017H26.3436V57.6563L37.9379 45.2863H52.7844L59.0316 57.7254C59.2102 58.0822 59.5477 58.3023 59.9136 58.3023H70.1745C71.1535 58.3023 71.838 59.0738 71.838 60.1788V70.6017H71.8374Z" fill="#468ADA"/>
</svg>
