<svg width="96" height="96" viewBox="0 0 96 96" fill="none" xmlns="http://www.w3.org/2000/svg">
<circle cx="48" cy="48" r="48" fill="white"/>
<circle cx="48.4" cy="48.4" r="36.9" stroke="#468ADA" stroke-width="3"/>
<path d="M59.1338 48.706H48.5828C48.0232 48.706 47.5703 48.2839 47.5703 47.7639V39.228C47.5703 38.7073 48.0232 38.2859 48.5828 38.2859C49.1416 38.2859 49.5952 38.7073 49.5952 39.228V46.8211H58.1214V39.0911C58.1214 38.5704 58.575 38.1489 59.1338 38.1489C59.6927 38.1489 60.1463 38.5704 60.1463 39.0911V47.7632C60.1463 48.2839 59.6927 48.706 59.1338 48.706Z" fill="#468ADA"/>
<path d="M61.4411 41.803C61.2082 41.803 60.9754 41.7288 60.7837 41.5768L53.9213 36.1199L47.2135 41.5511C46.7916 41.8922 46.1518 41.8507 45.7846 41.4588C45.4181 41.0662 45.462 40.4708 45.8838 40.1291L53.2504 34.1646C53.629 33.8593 54.1906 33.8562 54.5726 34.1596L62.0992 40.1448C62.5244 40.4827 62.5744 41.0775 62.2112 41.4732C62.0114 41.6912 61.7273 41.803 61.4411 41.803Z" fill="#468ADA"/>
<path d="M53.9658 60.163C49.0831 60.163 44.4279 58.523 40.7446 55.4824C32.5087 48.6826 31.752 36.9153 39.0579 29.2519C42.5947 25.5386 47.4747 23.3308 52.7981 23.0337C58.131 22.7385 63.2513 24.3879 67.2411 27.6804C71.2321 30.9729 73.606 35.5153 73.9246 40.4697C74.2438 45.4235 72.4707 50.1963 68.9319 53.909C65.393 57.6223 60.5117 59.8313 55.1875 60.1278C54.7792 60.151 54.3722 60.163 53.9658 60.163ZM54.0158 24.8835C53.652 24.8835 53.2861 24.8935 52.9196 24.9143C48.1355 25.1806 43.7509 27.1654 40.5732 30.5018C34.0078 37.3882 34.6881 47.9622 42.0885 54.0723C45.6732 57.0319 50.29 58.5098 55.0667 58.2473C59.8515 57.9803 64.2375 55.9955 67.4179 52.6591C70.5977 49.3227 72.1906 45.0334 71.9037 40.5821C71.6169 36.1302 69.4846 32.0488 65.8986 29.0898C62.5872 26.3576 58.4037 24.8835 54.0158 24.8835Z" fill="#468ADA"/>
<path d="M37.8884 59.6878C37.6495 59.6878 37.4098 59.6099 37.2168 59.4503C36.7983 59.1049 36.7599 58.5101 37.1311 58.1207L40.7226 54.3521C41.0938 53.964 41.7337 53.9263 42.1515 54.2724C42.57 54.6178 42.6084 55.2126 42.2372 55.602L38.6457 59.3706C38.4459 59.5804 38.1678 59.6878 37.8884 59.6878Z" fill="#468ADA"/>
<path d="M27.5443 73.61C27.2959 73.61 27.0549 73.5246 26.8693 73.3701L23.3372 70.4287C22.9207 70.0814 22.885 69.4859 23.2582 69.0984L34.4991 57.4083C34.8703 57.0214 35.5082 56.9875 35.9253 57.3317L39.4696 60.2592C39.6707 60.4257 39.7929 60.6599 39.8084 60.9099C39.8239 61.1599 39.7314 61.4055 39.5519 61.592L28.2989 73.296C28.12 73.4825 27.8689 73.5949 27.6003 73.6088C27.5814 73.6094 27.5632 73.61 27.5443 73.61ZM25.4417 69.653L27.4646 71.3376L37.3643 61.0406L35.3347 59.3635L25.4417 69.653Z" fill="#468ADA"/>
</svg>
