<svg width="156" height="40" viewBox="0 0 156 40" fill="none" xmlns="http://www.w3.org/2000/svg">
<g clip-path="url(#clip0_244_9)">
<path d="M24.4353 20.5286C24.4353 21.8832 24.199 23.0709 23.7265 24.0915C23.2539 25.1122 22.5761 25.8997 21.6931 26.4541C20.8164 27.0086 19.8091 27.2858 18.6711 27.2858C17.5457 27.2858 16.5414 27.0118 15.6585 26.4636C14.7755 25.9154 14.0915 25.1342 13.6065 24.1198C13.1215 23.0992 12.8759 21.9273 12.8696 20.6042V19.9238C12.8696 18.5692 13.109 17.3784 13.5878 16.3514C14.0729 15.3182 14.7537 14.5275 15.6305 13.9794C16.5135 13.4249 17.5208 13.1477 18.6525 13.1477C19.7842 13.1477 20.7884 13.4249 21.6652 13.9794C22.5481 14.5275 23.229 15.3182 23.7078 16.3514C24.1928 17.3784 24.4353 18.566 24.4353 19.9143V20.5286ZM21.5999 19.9049C21.5999 18.4621 21.3449 17.3658 20.8351 16.6161C20.3252 15.8663 19.5976 15.4914 18.6525 15.4914C17.7135 15.4914 16.9891 15.8632 16.4793 16.6066C15.9694 17.3438 15.7113 18.4274 15.7051 19.8576V20.5286C15.7051 21.9336 15.96 23.0236 16.4699 23.7985C16.9798 24.5735 17.7135 24.961 18.6711 24.961C19.6101 24.961 20.3314 24.5892 20.8351 23.8458C21.3387 23.096 21.5937 22.0061 21.5999 20.5759V19.9049ZM30.7218 21.5776L29.2668 23.1653V27.0968H26.4686V13.3367H29.2668V19.5741L30.498 17.8636L33.9583 13.3367H37.4001L32.578 19.4513L37.54 27.0968H34.2102L30.7218 21.5776Z" fill="white"/>
<path d="M44.6009 22.8062C44.7563 24.0096 45.1418 24.8948 45.7574 25.4618C46.373 26.0226 47.2685 26.3029 48.4437 26.3029C49.6686 26.3029 50.6355 25.8241 51.3444 24.8665C52.0533 23.9088 52.4077 22.6267 52.4077 21.0201V20.6798H46.7368V19.6875H52.4077V19.3473C52.4077 17.7533 52.044 16.4869 51.3164 15.5482C50.5889 14.6094 49.6064 14.14 48.3691 14.14C46.143 14.14 44.8869 15.3087 44.6009 17.6462H43.4536C43.5904 16.2223 44.0848 15.1166 44.9366 14.3291C45.7885 13.5415 46.9327 13.1477 48.3691 13.1477C49.9298 13.1477 51.1827 13.7147 52.1279 14.8488C53.0792 15.9766 53.555 17.5076 53.555 19.4418V21.0862C53.555 22.3085 53.3404 23.3953 52.9114 24.3467C52.4886 25.2917 51.8885 26.0194 51.1112 26.5298C50.3402 27.0338 49.451 27.2858 48.4437 27.2858C46.9886 27.2858 45.8289 26.8983 44.9646 26.1234C44.1003 25.3484 43.5967 24.2427 43.4536 22.8062H44.6009ZM58.9461 22.4093H57.3978V27.0968H56.2692V16.8713H57.3978V21.4075H58.9274L62.6303 16.8713H64.0385L59.8974 21.8328L64.4957 27.0968H63.022L58.9461 22.4093ZM69.6908 26.3313C70.4683 26.3313 71.1177 26.1108 71.6405 25.6698C72.169 25.2224 72.4549 24.646 72.4982 23.9403H73.5711C73.5399 24.564 73.3469 25.1342 72.9929 25.6509C72.6383 26.1612 72.1658 26.5612 71.5749 26.851C70.9904 27.1409 70.3626 27.2858 69.6908 27.2858C68.3664 27.2858 67.3158 26.8196 66.5383 25.8871C65.7673 24.9547 65.382 23.7009 65.382 22.1258V21.7856C65.382 20.7775 65.5559 19.886 65.9042 19.1111C66.2524 18.3361 66.7497 17.7376 67.3967 17.3154C68.0493 16.8933 68.8108 16.6822 69.6819 16.6822C70.7885 16.6822 71.6991 17.0162 72.4148 17.684C73.1355 18.3518 73.5214 19.2307 73.5711 20.3207H72.4982C72.4485 19.5205 72.1626 18.8748 71.6405 18.3833C71.1241 17.8919 70.4714 17.6462 69.6819 17.6462C68.6746 17.6462 67.8908 18.0148 67.3311 18.7519C66.7778 19.4891 66.5008 20.5223 66.5008 21.8517V22.1825C66.5008 23.4867 66.7778 24.5041 67.3311 25.2351C67.8908 25.9659 68.6771 26.3313 69.6908 26.3313ZM83.5602 27.0968H82.4414V17.8447H77.0037V27.0968H75.8843V16.8713H83.5602V27.0968ZM90.4624 27.2858C89.6047 27.2858 88.8272 27.0716 88.1306 26.6432C87.4404 26.2147 86.9024 25.6194 86.5172 24.857C86.1319 24.0883 85.939 23.2283 85.939 22.277V21.8706C85.939 20.8878 86.1256 20.0025 86.4987 19.215C86.8775 18.4274 87.4035 17.81 88.0746 17.3627C88.7464 16.9091 89.4741 16.6822 90.2573 16.6822C91.4824 16.6822 92.4521 17.1075 93.1672 17.9581C93.8886 18.8023 94.2496 19.9584 94.2496 21.4264V22.0596H87.0488V22.277C87.0488 23.4363 87.3755 24.4034 88.0281 25.1783C88.6871 25.947 89.5143 26.3313 90.5095 26.3313C91.1061 26.3313 91.6314 26.2211 92.0854 26.0005C92.5457 25.78 92.9622 25.4272 93.3353 24.9421L94.0351 25.4807C93.2143 26.6841 92.023 27.2858 90.4624 27.2858ZM90.2573 17.6462C89.4181 17.6462 88.7088 17.9581 88.1306 18.5818C87.5588 19.2056 87.2106 20.0435 87.0864 21.0956H93.1392V20.9728C93.1086 19.99 92.8316 19.1898 92.3095 18.5723C91.7868 17.9549 91.1029 17.6462 90.2573 17.6462ZM104.537 22.088C104.537 23.682 104.189 24.9483 103.492 25.8871C102.796 26.8196 101.864 27.2858 100.695 27.2858C99.3142 27.2858 98.2566 26.7943 97.5231 25.8115V31.0283H96.4133V16.8713H97.4486L97.5046 18.3172C98.2318 17.2272 99.2862 16.6822 100.667 16.6822C101.873 16.6822 102.818 17.1453 103.502 18.0714C104.192 18.9976 104.537 20.2829 104.537 21.9273V22.088ZM103.418 21.8895C103.418 20.5853 103.154 19.5552 102.625 18.7992C102.097 18.0431 101.36 17.6651 100.415 17.6651C99.7306 17.6651 99.1429 17.832 98.652 18.166C98.1605 18.4999 97.7842 18.9851 97.5231 19.6214V24.5262C97.7905 25.1121 98.1732 25.5595 98.6705 25.8682C99.1678 26.1769 99.7555 26.3313 100.433 26.3313C101.372 26.3313 102.103 25.9532 102.625 25.1972C103.154 24.4349 103.418 23.3323 103.418 21.8895ZM113.519 17.8352H109.845V27.0968H108.725V17.8352H105.19V16.8713H113.519V17.8352ZM121.988 16.8713H123.108V27.0968H121.988V18.6952L116.541 27.0968H115.431V16.8713H116.541V25.2823L121.988 16.8713ZM132.015 19.5741C132.015 18.9567 131.788 18.481 131.334 18.1471C130.88 17.8132 130.255 17.6462 129.459 17.6462C128.738 17.6462 128.119 17.8352 127.603 18.2132C127.094 18.5849 126.838 19.0575 126.838 19.6308H125.729C125.729 18.7803 126.086 18.0778 126.801 17.5233C127.522 16.9689 128.409 16.6917 129.459 16.6917C130.616 16.6917 131.518 16.9437 132.164 17.4477C132.811 17.9518 133.134 18.6669 133.134 19.593C133.134 20.0845 132.985 20.5286 132.687 20.9256C132.388 21.3225 131.953 21.6312 131.381 21.8517C132.674 22.2109 133.321 23.0236 133.321 24.29C133.321 25.2098 132.969 25.9375 132.267 26.4731C131.564 27.0086 130.631 27.2763 129.469 27.2763C128.343 27.2763 127.411 26.9897 126.671 26.4163C125.93 25.843 125.56 25.0932 125.56 24.1671H126.68C126.68 24.7845 126.947 25.3012 127.482 25.717C128.023 26.1265 128.685 26.3313 129.469 26.3313C130.321 26.3313 130.986 26.1518 131.465 25.7926C131.95 25.4272 132.192 24.9326 132.192 24.3089C132.192 23.6221 131.972 23.1276 131.53 22.8251C131.089 22.5227 130.414 22.3715 129.506 22.3715H127.967V21.3886H129.693C131.241 21.3509 132.015 20.746 132.015 19.5741ZM142.154 27.0968C142.042 26.7755 141.97 26.2998 141.939 25.6698C141.548 26.1864 141.047 26.5865 140.438 26.87C139.834 27.1472 139.194 27.2858 138.516 27.2858C137.546 27.2858 136.759 27.0118 136.156 26.4636C135.559 25.9154 135.261 25.2224 135.261 24.3845C135.261 23.389 135.668 22.6014 136.483 22.0218C137.304 21.4422 138.445 21.1523 139.906 21.1523H141.93V19.99C141.93 19.2591 141.706 18.6858 141.258 18.27C140.817 17.8478 140.17 17.6367 139.318 17.6367C138.541 17.6367 137.897 17.8383 137.388 18.2416C136.878 18.6448 136.622 19.13 136.622 19.697L135.504 19.6875C135.504 18.8748 135.877 18.1723 136.622 17.58C137.369 16.9815 138.286 16.6822 139.374 16.6822C140.499 16.6822 141.386 16.9689 142.032 17.5422C142.685 18.1092 143.021 18.9031 143.04 19.9238V24.7625C143.04 25.7516 143.143 26.492 143.348 26.9834V27.0968H142.154ZM138.647 26.284C139.393 26.284 140.058 26.1013 140.643 25.7359C141.234 25.3705 141.662 24.8822 141.93 24.2711V22.0218H139.934C138.821 22.0344 137.95 22.2423 137.322 22.6456C136.694 23.0425 136.38 23.5906 136.38 24.29C136.38 24.8633 136.589 25.339 137.005 25.717C137.428 26.0951 137.975 26.284 138.647 26.284Z" fill="#468ADA"/>
<path d="M136.261 1.29034H19.7387C9.54064 1.29034 1.27344 9.66696 1.27344 20C1.27344 30.3331 9.54064 38.7097 19.7387 38.7097H136.261C146.459 38.7097 154.727 30.3331 154.727 20C154.727 9.66696 146.459 1.29034 136.261 1.29034Z" stroke="#468ADA" stroke-width="4"/>
</g>
<defs>
<clipPath id="clip0_244_9">
<rect width="156" height="40" fill="white"/>
</clipPath>
</defs>
</svg>
